<svg width="1022" height="273" viewBox="0 0 1022 273" fill="none" xmlns="http://www.w3.org/2000/svg">
<rect x="13.5338" y="13.5338" width="994.286" height="245.414" rx="40.6015" fill="#1D8FF9" stroke="white" stroke-width="27.0677"/>
<path d="M204.052 83.7319V188.722H179.035V104.033H140.074V188.722H115.057V83.7319H204.052ZM332.19 136.227C332.19 147.778 329.968 157.57 325.525 165.601C321.082 173.633 315.067 179.733 307.48 183.903C299.927 188.072 291.452 190.157 282.053 190.157C272.62 190.157 264.128 188.055 256.575 183.852C249.022 179.648 243.024 173.547 238.581 165.55C234.172 157.519 231.968 147.744 231.968 136.227C231.968 124.675 234.172 114.884 238.581 106.852C243.024 98.8208 249.022 92.7203 256.575 88.5508C264.128 84.3813 272.62 82.2965 282.053 82.2965C291.452 82.2965 299.927 84.3813 307.48 88.5508C315.067 92.7203 321.082 98.8208 325.525 106.852C329.968 114.884 332.19 124.675 332.19 136.227ZM306.25 136.227C306.25 129.392 305.276 123.616 303.328 118.899C301.414 114.183 298.646 110.612 295.023 108.185C291.435 105.759 287.111 104.545 282.053 104.545C277.029 104.545 272.706 105.759 269.083 108.185C265.46 110.612 262.675 114.183 260.727 118.899C258.813 123.616 257.856 129.392 257.856 136.227C257.856 143.062 258.813 148.838 260.727 153.554C262.675 158.271 265.46 161.842 269.083 164.269C272.706 166.695 277.029 167.908 282.053 167.908C287.111 167.908 291.435 166.695 295.023 164.269C298.646 161.842 301.414 158.271 303.328 153.554C305.276 148.838 306.25 143.062 306.25 136.227ZM449.229 83.7319V188.722H424.212V104.033H385.251V188.722H360.234V83.7319H449.229ZM491.55 190.157V170.061H496.932C499.837 170.061 502.161 169.771 503.904 169.19C505.682 168.575 507.066 167.601 508.057 166.268C509.082 164.935 509.937 163.158 510.62 160.936L511.799 157.707L473.043 83.7319H499.086L522.411 130.895L541.174 83.7319H566.806L530.716 166.934C528.836 171.035 526.615 174.863 524.051 178.418C521.488 181.938 518.259 184.774 514.362 186.927C510.5 189.081 505.63 190.157 499.752 190.157H491.55ZM590.095 104.34V83.7319H678.834V104.34H646.999V188.722H621.981V104.34H590.095ZM764.742 188.722L731.728 145.147H725.986V188.722H700.611V83.7319H725.986V124.487H730.036L762.538 83.7319H794.271L753.823 133.305L796.373 188.722H764.742ZM837.732 188.722H810.46L845.883 83.7319H879.667L915.091 188.722H887.818L863.16 110.184H862.339L837.732 188.722ZM834.093 147.402H891.099V166.678H834.093V147.402Z" fill="white"/>
</svg>
